<svg width="48" height="61" viewBox="0 0 48 61" fill="none" xmlns="http://www.w3.org/2000/svg">
<path d="M13.9492 37.8677C17.5582 37.8704 21.0121 37.914 24.4639 37.8505C25.6779 37.8282 26.4167 38.2473 26.96 39.328C28.498 42.387 30.3296 45.2997 31.6597 48.4261C30.995 49.0768 30.3184 48.8823 29.7067 48.8833C22.2739 48.8966 14.8407 48.8537 7.40846 48.9209C5.97176 48.9339 5.15649 48.4356 4.51956 47.1913C3.34747 44.9014 2.1491 42.612 0.766518 40.447C-0.27867 38.8104 -0.228324 37.4921 0.755022 35.8107C5.98277 26.8721 11.0937 17.8651 16.2433 8.88073C17.6397 6.4444 19.0679 4.02506 20.405 1.55647C20.95 0.550178 21.6426 0.180414 22.7823 0.202596C26.1501 0.268163 29.5201 0.226027 33.3944 0.226027C26.1537 12.9001 19.1574 25.1465 12.2038 37.318C12.7246 38.037 13.2986 37.7963 13.9492 37.8677Z" fill="white"/>
<path d="M47.7852 50.208C48.1992 51.0101 47.8187 51.5372 47.4549 52.0828C45.8978 54.4182 44.3322 56.7483 42.8103 59.1065C42.3147 59.8744 41.707 60.2037 40.7867 60.2017C31.484 60.1814 22.1813 60.191 12.8786 60.1886C12.2958 60.1884 11.6628 60.2443 11.2815 59.6781C9.36496 56.8326 7.4649 53.9761 5.21021 50.6012C15.5876 50.6012 25.3991 50.6012 35.2128 50.6012C35.3123 49.3347 34.7237 48.7013 34.338 48.0134C32.7364 45.157 31.1245 42.3053 29.4498 39.4914C28.8738 38.5235 28.8135 37.7435 29.4705 36.7707C30.9424 34.5913 32.2952 32.3317 33.7216 30.1209C34.0236 29.6527 34.1887 29.0263 35.2077 28.7866C39.3474 35.8372 43.5356 42.9703 47.7852 50.208Z" fill="white"/>
</svg>
